<svg width="1308" height="1602" viewBox="0 0 1308 1602" fill="none" xmlns="http://www.w3.org/2000/svg">
<path d="M800.803 65.0002H212.161C173.131 65.0002 135.7 80.5046 108.102 108.103C80.5044 135.701 65 173.131 65 212.161V1389.45C65 1428.47 80.5044 1465.91 108.102 1493.5C135.7 1521.1 173.131 1536.61 212.161 1536.61H1095.12C1134.15 1536.61 1171.58 1521.1 1199.18 1493.5C1226.78 1465.91 1242.28 1428.47 1242.28 1389.45V506.482M800.803 65.0002C824.095 64.9625 847.165 69.5329 868.683 78.4484C890.201 87.3639 909.743 100.448 926.184 116.948L1190.19 380.954C1206.73 397.4 1219.86 416.96 1228.8 438.506C1237.74 460.051 1242.32 483.155 1242.28 506.482M800.803 65.0002V432.901C800.803 452.416 808.555 471.132 822.354 484.931C836.153 498.73 854.868 506.482 874.383 506.482L1242.28 506.482M506.482 580.062H359.321M947.963 874.383H359.321M947.963 1168.7H359.321" stroke="white" stroke-width="130" stroke-linecap="round" stroke-linejoin="round"/>
</svg>
