<svg width="32" height="32" viewBox="0 0 32 32" fill="none" xmlns="http://www.w3.org/2000/svg">
<g clip-path="url(#clip0_857_4239)">
<path d="M16 10H11.3333C10.9797 10 10.6406 10.1405 10.3905 10.3905C10.1405 10.6406 10 10.9797 10 11.3333V20.6667C10 21.0203 10.1405 21.3594 10.3905 21.6095C10.6406 21.8595 10.9797 22 11.3333 22H20.6667C21.0203 22 21.3594 21.8595 21.6095 21.6095C21.8595 21.3594 22 21.0203 22 20.6667V16" stroke="#999999" stroke-width="1.33333" stroke-linecap="round" stroke-linejoin="round"/>
<path d="M20.2499 9.75003C20.5151 9.48481 20.8748 9.33582 21.2499 9.33582C21.625 9.33582 21.9847 9.48481 22.2499 9.75003C22.5151 10.0152 22.6641 10.375 22.6641 10.75C22.6641 11.1251 22.5151 11.4848 22.2499 11.75L16.2412 17.7594C16.0829 17.9175 15.8874 18.0333 15.6726 18.096L13.7572 18.656C13.6999 18.6728 13.6391 18.6738 13.5812 18.6589C13.5233 18.6441 13.4705 18.614 13.4282 18.5717C13.3859 18.5295 13.3558 18.4766 13.341 18.4188C13.3262 18.3609 13.3272 18.3001 13.3439 18.2427L13.9039 16.3274C13.9669 16.1127 14.0829 15.9174 14.2412 15.7594L20.2499 9.75003Z" stroke="#999999" stroke-width="1.33333" stroke-linecap="round" stroke-linejoin="round"/>
</g>
<defs>
<clipPath id="clip0_857_4239">
<rect width="16" height="16" fill="white" transform="translate(8 8)"/>
</clipPath>
</defs>
</svg>
