<svg width="28" height="28" viewBox="0 0 28 28" fill="none" xmlns="http://www.w3.org/2000/svg">
<path d="M11.667 15.1667C12.168 15.8365 12.8072 16.3908 13.5413 16.7918C14.2754 17.1929 15.0871 17.4313 15.9214 17.4911C16.7558 17.5508 17.5932 17.4305 18.3769 17.1381C19.1606 16.8458 19.8723 16.3883 20.4637 15.7967L23.9637 12.2967C25.0262 11.1965 25.6142 9.72301 25.6009 8.19353C25.5876 6.66405 24.9741 5.20098 23.8926 4.11943C22.8111 3.03789 21.348 2.4244 19.8185 2.41111C18.289 2.39782 16.8155 2.98579 15.7153 4.04837L13.7087 6.04337" stroke="white" stroke-opacity="0.75" stroke-width="2.33333" stroke-linecap="round" stroke-linejoin="round"/>
<path d="M16.3336 12.8333C15.8325 12.1635 15.1933 11.6093 14.4593 11.2082C13.7252 10.8072 12.9135 10.5687 12.0791 10.5089C11.2448 10.4492 10.4074 10.5695 9.62366 10.8619C8.83994 11.1542 8.12827 11.6117 7.5369 12.2033L4.0369 15.7033C2.97431 16.8035 2.38634 18.277 2.39963 19.8065C2.41293 21.336 3.02641 22.799 4.10796 23.8806C5.18951 24.9621 6.65258 25.5756 8.18206 25.5889C9.71154 25.6022 11.1851 25.0142 12.2852 23.9516L14.2802 21.9566" stroke="white" stroke-opacity="0.75" stroke-width="2.33333" stroke-linecap="round" stroke-linejoin="round"/>
</svg>
