<svg width="11001" height="2318" viewBox="0 0 11001 2318" fill="none" xmlns="http://www.w3.org/2000/svg">
<path d="M10646.3 1610.81C10845 1610.81 11000.7 1761.31 11000.7 1964.41C11000.7 2167.5 10845 2318 10646.3 2318C10449.2 2318 10293.5 2167.5 10293.5 1964.41C10293.5 1761.31 10449.2 1610.81 10646.3 1610.81ZM1178.63 0C1510.74 0 1790.42 109.872 2015.15 332.113C2242.39 554.354 2354.76 829.035 2354.76 1158.65C2354.76 1488.27 2242.39 1762.95 2015.15 1985.19C1787.92 2207.43 1508.24 2317.3 1178.63 2317.3C846.514 2317.3 566.84 2207.43 342.102 1985.19C112.369 1762.95 0 1488.27 0 1158.65C2.01735e-05 829.034 112.369 554.354 339.604 332.113C566.84 109.872 846.514 5.70745e-05 1178.63 0ZM6385.06 0C6717.18 0.00010476 6996.85 109.872 7221.59 332.113C7448.82 554.354 7561.19 829.034 7561.19 1158.65C7561.19 1488.27 7448.82 1762.95 7221.59 1985.19C6994.35 2207.43 6714.68 2317.3 6385.06 2317.3C6052.95 2317.3 5773.28 2207.43 5548.54 1985.19C5321.3 1762.95 5208.93 1488.27 5208.93 1158.65C5208.93 829.034 5321.3 554.354 5548.54 332.113C5773.28 109.872 6052.95 0 6385.06 0ZM4434.84 1340.94L4881.82 49.9395H5423.68L4642.09 2292.33H4270.03L3778.1 734.143L3291.17 2292.33H2919.1L2137.51 52.4365H2679.38L3121.37 1340.94L3518.4 49.9395H4040.3L4434.84 1340.94ZM9641.27 1340.94L10088.2 49.9395H10630.1L9846.03 2292.33H9473.96L8982.04 734.143L8495.1 2292.33H8123.03L7343.94 52.4365H7885.81L8327.8 1340.94L8724.83 49.9395H9246.72L9641.27 1340.94ZM10646.3 1670.72C10484.7 1670.72 10363.2 1793.45 10363.2 1964.41C10363.2 2135.36 10484.7 2258.09 10646.3 2258.09C10809.4 2258.09 10931 2135.36 10931 1964.41C10931 1793.45 10809.4 1670.72 10646.3 1670.72ZM10662.7 1768.62C10756.1 1768.62 10805 1809.53 10805 1882.58C10805 1936.64 10770.9 1968.79 10722 1980.48V1981.94C10821.3 1998.01 10790.2 2145.59 10812.4 2152.89V2157.28H10713.1C10693.8 2139.74 10726.4 2019.93 10633 2019.93H10595.9V2157.28H10498.1V1768.62H10662.7ZM10595.9 1942.49H10637.4C10676 1942.49 10711.6 1933.72 10711.6 1891.35C10711.6 1848.98 10676 1841.67 10637.4 1841.67H10595.9V1942.49ZM1178.63 434.494C991.345 434.494 834.028 504.413 704.18 646.747C576.828 789.081 511.903 958.883 511.903 1158.65C511.903 1358.42 576.828 1528.22 704.18 1668.06C831.531 1807.89 991.345 1877.81 1178.63 1877.81C1365.91 1877.81 1523.23 1807.89 1653.07 1668.06C1780.43 1530.72 1845.35 1360.91 1845.35 1158.65C1845.35 958.883 1780.43 789.081 1653.07 646.747C1525.72 504.413 1365.91 434.494 1178.63 434.494ZM6385.06 434.494C6197.78 434.494 6040.47 504.413 5910.62 646.747C5783.26 789.081 5718.34 958.883 5718.34 1158.65C5718.34 1358.42 5783.26 1528.22 5910.62 1668.06C6037.97 1807.89 6197.78 1877.81 6385.06 1877.81C6572.35 1877.81 6729.66 1807.89 6859.51 1668.06C6986.86 1530.72 7051.79 1360.91 7051.79 1158.65C7051.79 958.883 6986.86 789.081 6859.51 646.747C6732.16 504.413 6572.35 434.494 6385.06 434.494Z" fill="white"/>
</svg>
