<svg width="1604" height="1594" viewBox="0 0 1604 1594" fill="none" xmlns="http://www.w3.org/2000/svg">
<path d="M802 1529C1209.03 1529 1539 1201.27 1539 797C1539 392.728 1209.03 65 802 65C394.966 65 65 392.728 65 797C65 1201.27 394.966 1529 802 1529Z" stroke="white" stroke-width="130" stroke-linecap="round" stroke-linejoin="round"/>
<path d="M802 1236.2C1046.22 1236.2 1244.2 1039.56 1244.2 797C1244.2 554.437 1046.22 357.8 802 357.8C557.78 357.8 359.8 554.437 359.8 797C359.8 1039.56 557.78 1236.2 802 1236.2Z" stroke="white" stroke-width="130" stroke-linecap="round" stroke-linejoin="round"/>
<path d="M802 943.4C883.407 943.4 949.4 877.854 949.4 797C949.4 716.145 883.407 650.6 802 650.6C720.593 650.6 654.6 716.145 654.6 797C654.6 877.854 720.593 943.4 802 943.4Z" stroke="white" stroke-width="130" stroke-linecap="round" stroke-linejoin="round"/>
</svg>
